{"title":"StephenLynch.avi","uid":5590202,"size":754904872,"categoryP":"video","categoryS":"music_videos","magnet":"?xt=urn:btih:7b4c4182ec5c82378b14ed7fb9dd2b0e678b5402&amp;dn=StephenLynch.avi&amp;tr=udp%3A%2F%2Ftracker.openbittorrent.com%3A80&amp;tr=udp%3A%2F%2Fopen.demonii.com%3A1337&amp;tr=udp%3A%2F%2Ftracker.coppersurfer.tk%3A6969&amp;tr=udp%3A%2F%2Fexodus.desync.com%3A6969","seeders":0,"leechers":0,"uploader":"tpbsavior","files":1,"time":1274839095,"description":"Stephen Lynch Live @ the Del Ray'\n\n\n\n\nFormat                           : AVI\nFormat/Info                      : Audio Video Interleave\nFile size                        : 720 MiB\nDuration                         : 1h 9mn\nOverall bit rate                 : 1 451 Kbps\n\nVideo\nID                               : 0\nFormat                           : MPEG-4 Visual\nFormat settings, BVOP            : Yes\nFormat settings, QPel            : No\nFormat settings, GMC             : No warppoints\nFormat settings, Matrix          : Default (H.263)\nMuxing mode                      : Packed bitstream\nCodec ID                         : DX50\nCodec ID/Hint                    : DivX 5\nDuration                         : 1h 9mn\nBit rate                         : 1 312 Kbps\nWidth                            : 720 pixels\nHeight                           : 528 pixels\nDisplay aspect ratio             : 4:3\nFrame rate                       : 29.970 fps\nResolution                       : 24 bits\nColorimetry                      : 4:2:0\nScan type                        : Progressive\nBits/(Pixel*Frame)               : 0.115\nStream size                      : 651 MiB (90%)\nTitle                            : Video \nWriting library                  : DivX 6.8.2 (UTC 2008-05-17)\n\nAudio\nID                               : 1\nFormat                           : MPEG Audio\nFormat version                   : Version 1\nFormat profile                   : Layer 3\nCodec ID                         : 55\nCodec ID/Hint                    : MP3\nDuration                         : 1h 9mn\nBit rate mode                    : Constant\nBit rate                         : 128 Kbps\nChannel(s)                       : 2 channels\nSampling rate                    : 48.0 KHz\nResolution                       : 16 bits\nStream size                      : 63.5 MiB (9%)\nAlignment                        : Split accross interleaves\nInterleave, duration             : 33 ms (1.00 video frame)\nInterleave, preload duration     : 500 ms\nTitle                            : Audio \n\n","torrent":{"xt":"urn:btih:7b4c4182ec5c82378b14ed7fb9dd2b0e678b5402","amp;dn":"StephenLynch.avi","amp;tr":["udp%3A%2F%2Ftracker.openbittorrent.com%3A80","udp%3A%2F%2Fopen.demonii.com%3A1337","udp%3A%2F%2Ftracker.coppersurfer.tk%3A6969","udp%3A%2F%2Fexodus.desync.com%3A6969"],"infoHash":"7b4c4182ec5c82378b14ed7fb9dd2b0e678b5402","infoHashBuffer":{"type":"Buffer","data":[123,76,65,130,236,92,130,55,139,20,237,127,185,221,43,14,103,139,84,2]},"announce":[],"urlList":[]}}